HIERARCHY
ROOT Hips
{
	OFFSET -0.001795 -0.223333 0.028219
	CHANNELS 6 Xposition Yposition Zposition Zrotation Yrotation Xrotation 
	JOINT LeftUpLeg
	{
		OFFSET 0.069520 -0.091406 -0.006815
		CHANNELS 3 Zrotation Yrotation Xrotation
		JOINT LeftLeg
		{
			OFFSET 0.034277 -0.375199 -0.004496
			CHANNELS 3 Zrotation Yrotation Xrotation
			JOINT LeftFoot
			{
				OFFSET -0.013596 -0.397961 -0.043693
				CHANNELS 3 Zrotation Yrotation Xrotation
				JOINT LeftToe
				{
					OFFSET 0.026358 -0.055791 0.119288
					CHANNELS 3 Zrotation Yrotation Xrotation
					End Site
					{
						OFFSET 0.000000 0.000000 0.000000
					}
				}
			}
		}
	}
	JOINT RightUpLeg
	{
		OFFSET -0.067670 -0.090522 -0.004320
		CHANNELS 3 Zrotation Yrotation Xrotation
		JOINT RightLeg
		{
			OFFSET -0.038290 -0.382569 -0.008850
			CHANNELS 3 Zrotation Yrotation Xrotation
			JOINT RightFoot
			{
				OFFSET 0.015774 -0.398415 -0.042312
				CHANNELS 3 Zrotation Yrotation Xrotation
				JOINT RightToe
				{
					OFFSET -0.025372 -0.048144 0.123348
					CHANNELS 3 Zrotation Yrotation Xrotation
					End Site
					{
						OFFSET 0.000000 0.000000 0.000000
					}
				}
			}
		}
	}
	JOINT Spine
	{
		OFFSET -0.002533 0.108963 -0.026696
		CHANNELS 3 Zrotation Yrotation Xrotation
		JOINT Spine1
		{
			OFFSET 0.005487 0.135180 0.001092
			CHANNELS 3 Zrotation Yrotation Xrotation
			JOINT Spine2
			{
				OFFSET 0.001457 0.052922 0.025425
				CHANNELS 3 Zrotation Yrotation Xrotation
				JOINT Neck
				{
					OFFSET -0.002778 0.213870 -0.042857
					CHANNELS 3 Zrotation Yrotation Xrotation
					JOINT Head
					{
						OFFSET 0.005152 0.064970 0.051349
						CHANNELS 3 Zrotation Yrotation Xrotation
						End Site
						{
							OFFSET 0.000000 0.000000 0.000000
						}
					}
				}
				JOINT LeftShoulder
				{
					OFFSET 0.078845 0.121749 -0.034090
					CHANNELS 3 Zrotation Yrotation Xrotation
					JOINT LeftArm
					{
						OFFSET 0.090977 0.030469 -0.008868
						CHANNELS 3 Zrotation Yrotation Xrotation
						JOINT LeftForeArm
						{
							OFFSET 0.259612 -0.012772 -0.027456
							CHANNELS 3 Zrotation Yrotation Xrotation
							JOINT LeftHand
							{
								OFFSET 0.249234 0.008986 -0.001171
								CHANNELS 3 Zrotation Yrotation Xrotation
								End Site
								{
									OFFSET 0.000000 0.000000 0.000000
								}
							}
						}
					}
				}
				JOINT RightShoulder
				{
					OFFSET -0.081759 0.118833 -0.038615
					CHANNELS 3 Zrotation Yrotation Xrotation
					JOINT RightArm
					{
						OFFSET -0.096012 0.032551 -0.009143
						CHANNELS 3 Zrotation Yrotation Xrotation
						JOINT RightForeArm
						{
							OFFSET -0.253742 -0.013329 -0.021401
							CHANNELS 3 Zrotation Yrotation Xrotation
							JOINT RightHand
							{
								OFFSET -0.255298 0.007772 -0.005559
								CHANNELS 3 Zrotation Yrotation Xrotation
								End Site
								{
									OFFSET 0.000000 0.000000 0.000000
								}
							}
						}
					}
				}
			}
		}
	}
}
MOTION
Frames: 12
Frame Time: 0.050000
0.000000 0.942379 0.000000 -0.124511 1.172495 4.723187 1.387751 -0.087852 -0.669314 -3.865032 0.402978 -7.518152 18.301326 25.771585 58.272508 0.000000 0.000000 0.000000 -1.636662 0.200193 -1.685965 0.723070 -0.100349 -0.708312 -6.616812 -17.124786 11.005619 0.000000 0.000000 0.000000 3.758004 0.227583 -4.407686 -1.194812 0.658695 -5.380724 -2.727812 3.369833 12.211635 6.262635 -2.042007 -18.198966 0.000000 0.000000 0.000000 -7.969564 -1.589030 -0.403172 -32.488785 -7.442358 -2.333019 24.984316 -12.580837 -2.437597 0.000000 0.000000 0.000000 8.546400 -2.906010 -1.460073 34.610927 9.365539 -1.620831 -20.461470 16.018570 -1.553166 0.000000 0.000000 0.000000 
0.003726 0.940856 0.003085 -0.931691 0.503112 4.985110 2.014842 -0.057659 -0.087175 -3.963590 0.413197 -8.587537 19.146101 26.271514 58.342729 0.000000 0.000000 0.000000 -1.103904 0.225185 -2.049961 0.760891 -0.091757 -0.362226 -6.318555 -16.602597 10.677493 0.000000 0.000000 0.000000 4.424635 0.256867 -4.667887 -0.954960 0.534386 -4.586639 -2.763628 5.262032 11.238316 6.568950 -1.917086 -18.823405 0.000000 0.000000 0.000000 -7.525909 -1.107655 -0.717972 -33.375476 -7.445731 -2.273322 22.934815 -12.416332 -2.280293 0.000000 0.000000 0.000000 9.329248 -5.257107 -2.423431 36.299887 9.347584 -1.636921 -21.406820 17.368262 -1.711350 0.000000 0.000000 0.000000 
0.008334 0.939503 0.006191 -1.134288 -0.468548 5.169495 1.798664 -0.006879 0.491087 -3.907714 0.425014 -9.428444 19.882247 26.674283 58.674410 0.000000 0.000000 0.000000 -1.634420 0.279677 -2.555225 1.330021 -0.126596 0.361459 -5.933491 -15.907462 10.128995 0.000000 0.000000 0.000000 5.343175 0.298973 -4.953451 -1.993042 0.967482 -5.694071 -2.782240 5.644105 12.888725 6.984393 -2.252707 -18.659005 0.000000 0.000000 0.000000 -7.566620 -1.211849 -0.637262 -34.840429 -5.132363 -3.089361 24.094285 -13.141299 -2.524409 0.000000 0.000000 0.000000 10.908265 -4.607611 -2.213946 36.439801 9.589509 -1.710903 -22.442123 17.617348 -1.874325 0.000000 0.000000 0.000000 
0.013592 0.938413 0.009871 -1.411158 -0.663297 4.662042 1.408740 0.038122 0.889700 -3.344556 0.408683 -8.657589 20.549384 27.102750 58.556878 0.000000 0.000000 0.000000 -1.356692 0.287327 -2.705780 0.707934 -0.003654 2.047041 -5.955271 -15.925237 9.738949 0.000000 0.000000 0.000000 4.874823 0.294592 -4.878664 -1.751082 0.861487 -4.904861 -2.509700 5.802437 12.665554 6.364903 -1.853483 -18.708532 0.000000 0.000000 0.000000 -8.263010 -0.115912 -1.197752 -37.486801 -4.343298 -3.537154 25.477648 -13.919095 -2.854410 0.000000 0.000000 0.000000 11.854803 -5.409057 -2.654756 38.506036 9.555637 -1.734275 -24.380988 19.007454 -2.296853 0.000000 0.000000 0.000000 
0.019772 0.937910 0.013692 -1.573190 -0.841228 4.400250 1.055390 0.096651 1.455805 -3.179665 0.405102 -8.662159 20.825245 27.273321 58.525839 0.000000 0.000000 0.000000 -1.766487 0.295875 -2.756606 0.973436 -0.003157 3.058573 -5.888760 -15.811930 9.739510 0.000000 0.000000 0.000000 4.625773 0.249017 -4.317767 -1.260711 0.657480 -5.373270 -2.955590 6.043779 12.389631 6.888756 -2.151566 -18.638894 0.000000 0.000000 0.000000 -9.573794 0.263080 -1.597006 -39.561623 -3.089065 -4.078367 25.952829 -15.347912 -3.222099 0.000000 0.000000 0.000000 13.573993 -6.138599 -3.101205 40.966239 9.114145 -1.928139 -26.551292 21.489136 -2.977113 0.000000 0.000000 0.000000 
0.026710 0.936468 0.017388 -1.845971 -0.226087 4.335161 0.743468 0.118695 1.605910 -2.827788 0.384211 -8.448008 21.188609 27.590992 57.878987 0.000000 0.000000 0.000000 -2.049110 0.350348 -3.393947 1.345698 -0.002847 4.903098 -6.251861 -16.457545 9.715471 0.000000 0.000000 0.000000 4.271744 0.224142 -4.101188 -1.014359 0.554336 -4.735385 -2.800945 4.805941 11.661483 6.998763 -2.247400 -19.075677 0.000000 0.000000 0.000000 -10.976436 1.426025 -2.228751 -43.173132 -2.107968 -4.770985 24.898727 -17.226024 -3.339195 0.000000 0.000000 0.000000 15.127173 -6.707626 -3.681430 45.656135 9.202096 -1.862533 -28.840191 23.411917 -3.766880 0.000000 0.000000 0.000000 
0.033925 0.936115 0.020350 -2.028944 -0.181844 4.026798 0.402959 0.132424 1.617379 -2.716753 0.370207 -7.506152 21.440757 27.763263 57.779380 0.000000 0.000000 0.000000 -2.568057 0.430144 -4.415529 1.797533 -0.003952 7.658919 -6.331510 -16.631667 10.008235 0.000000 0.000000 0.000000 4.130984 0.152476 -3.145443 -0.648404 0.406377 -5.062987 -3.026025 4.587096 11.289594 7.171936 -2.366453 -19.057251 0.000000 0.000000 0.000000 -13.588003 0.792618 -2.361092 -46.401339 -0.431999 -5.707799 22.651509 -19.362433 -3.315559 0.000000 0.000000 0.000000 17.681227 -7.396783 -4.334688 50.391549 7.666348 -2.525382 -28.477546 27.731544 -4.579450 0.000000 0.000000 0.000000 
0.041112 0.935124 0.022440 -2.485285 0.140756 3.573902 0.359751 0.111174 1.360592 -2.550853 0.342411 -5.932298 21.966515 28.147363 57.414690 0.000000 0.000000 0.000000 -2.852619 0.550729 -6.091437 2.453648 -0.050229 11.780899 -6.558282 -17.077355 10.615411 0.000000 0.000000 0.000000 4.185522 0.092300 -2.298786 -0.636442 0.392958 -4.413532 -3.045743 4.044464 11.318776 7.939452 -2.671983 -20.294490 0.000000 0.000000 0.000000 -15.860905 0.467430 -2.509647 -50.128011 -0.423426 -6.211384 19.571898 -20.877018 -2.934918 0.000000 0.000000 0.000000 20.480527 -7.696484 -4.891146 55.550728 6.594194 -3.159377 -27.136849 29.929963 -4.718630 0.000000 0.000000 0.000000 
0.047565 0.934464 0.023765 -2.918659 0.880385 2.881685 0.449455 0.100241 1.275643 -2.492874 0.316389 -4.348340 22.138713 28.343309 56.828848 0.000000 0.000000 0.000000 -2.512832 0.661120 -7.510845 2.377381 0.016893 16.292378 -6.973300 -17.803062 10.924705 0.000000 0.000000 0.000000 3.940103 0.005269 -1.040046 -0.223358 0.218284 -4.106904 -3.414340 3.936602 11.093412 8.835890 -3.072738 -20.759640 0.000000 0.000000 0.000000 -17.615626 -1.302949 -1.988641 -54.341580 -1.114991 -6.444269 15.653142 -20.596376 -2.174956 0.000000 0.000000 0.000000 24.033092 -8.078699 -5.435842 59.865841 5.120592 -4.108802 -22.577094 30.239522 -3.631707 0.000000 0.000000 0.000000 
0.053032 0.933085 0.025121 -3.422876 1.346684 2.090103 0.900628 0.111647 1.594294 -2.883751 0.331354 -3.238639 22.555581 28.689084 56.263856 0.000000 0.000000 0.000000 -1.878943 0.912145 -10.328821 2.199835 0.140506 23.225241 -7.522850 -18.793678 12.282802 0.000000 0.000000 0.000000 3.988834 -0.053231 -0.141825 -0.365232 0.266712 -3.374204 -3.220345 3.310546 11.760713 9.964445 -3.493428 -22.505928 0.000000 0.000000 0.000000 -18.959569 -2.039632 -1.685155 -58.061852 -2.421501 -6.385575 10.646544 -20.279090 -1.186316 0.000000 0.000000 0.000000 25.992938 -8.166814 -5.833807 65.207557 4.167122 -4.938471 -18.151320 30.106963 -2.578192 0.000000 0.000000 0.000000 
0.057304 0.931903 0.026861 -3.731353 1.766130 1.285012 1.195281 0.135257 2.021075 -3.235266 0.350744 -2.242463 22.790056 28.905448 55.790203 0.000000 0.000000 0.000000 -1.094748 1.244430 -13.585124 1.580882 0.425454 30.483296 -8.097499 -19.742820 15.582812 0.000000 0.000000 0.000000 3.659917 -0.143508 1.291175 -0.175978 0.180846 -3.121771 -3.452613 2.586919 11.629258 10.493907 -3.850265 -22.518042 0.000000 0.000000 0.000000 -19.492785 -3.336866 -0.957393 -60.581127 -2.924019 -6.442047 6.746700 -20.730457 -0.479789 0.000000 0.000000 0.000000 27.446758 -7.450716 -5.704779 68.549495 2.710814 -5.985715 -14.851698 30.360775 -1.870401 0.000000 0.000000 0.000000 
0.060235 0.930961 0.029272 -4.138857 2.324400 0.545458 1.594761 0.156018 2.513896 -3.377674 0.356045 -1.454768 22.903800 29.056240 55.251301 0.000000 0.000000 0.000000 -0.312072 1.598970 -16.673061 1.704951 0.360162 35.894222 -9.779641 -22.279941 18.254751 0.000000 0.000000 0.000000 3.482256 -0.218882 2.508156 -0.032474 0.136712 -3.520616 -3.429743 2.014036 12.877490 10.785570 -3.844484 -23.907025 0.000000 0.000000 0.000000 -19.865265 -4.204500 -0.416774 -61.419324 -4.270599 -5.971918 2.422854 -20.083970 0.319658 0.000000 0.000000 0.000000 28.787322 -6.880418 -5.545705 71.156324 2.501847 -6.447123 -12.774041 30.097239 -1.335904 0.000000 0.000000 0.000000 
